<mxfile host="app.diagrams.net" agent="Mozilla/5.0 (Windows NT 10.0; Win64; x64) AppleWebKit/537.36 (KHTML, like Gecko) Chrome/127.0.0.0 Safari/537.36" version="24.7.7">
  <diagram name="Page-1" id="IRvWFQcMkO-Zk-dpASZG">
    <mxGraphModel dx="1434" dy="746" grid="1" gridSize="10" guides="1" tooltips="1" connect="1" arrows="1" fold="1" page="1" pageScale="1" pageWidth="850" pageHeight="1100" math="0" shadow="0">
      <root>
        <mxCell id="0" />
        <mxCell id="1" parent="0" />
        <mxCell id="CQNOTgiLwDwh5zLEu_ER-1" value="CameraController" style="rounded=0;whiteSpace=wrap;html=1;" vertex="1" parent="1">
          <mxGeometry x="80" y="260" width="120" height="60" as="geometry" />
        </mxCell>
        <mxCell id="CQNOTgiLwDwh5zLEu_ER-2" value="Tower" style="rounded=0;whiteSpace=wrap;html=1;" vertex="1" parent="1">
          <mxGeometry x="320" y="260" width="120" height="60" as="geometry" />
        </mxCell>
        <mxCell id="CQNOTgiLwDwh5zLEu_ER-3" value="Shape" style="rounded=0;whiteSpace=wrap;html=1;" vertex="1" parent="1">
          <mxGeometry x="480" y="260" width="120" height="60" as="geometry" />
        </mxCell>
        <mxCell id="CQNOTgiLwDwh5zLEu_ER-5" style="edgeStyle=orthogonalEdgeStyle;rounded=0;orthogonalLoop=1;jettySize=auto;html=1;exitX=0.75;exitY=0;exitDx=0;exitDy=0;entryX=0.5;entryY=1;entryDx=0;entryDy=0;" edge="1" parent="1" source="CQNOTgiLwDwh5zLEu_ER-4" target="CQNOTgiLwDwh5zLEu_ER-3">
          <mxGeometry relative="1" as="geometry" />
        </mxCell>
        <mxCell id="CQNOTgiLwDwh5zLEu_ER-6" style="edgeStyle=orthogonalEdgeStyle;rounded=0;orthogonalLoop=1;jettySize=auto;html=1;exitX=0.25;exitY=0;exitDx=0;exitDy=0;entryX=0.5;entryY=1;entryDx=0;entryDy=0;" edge="1" parent="1" source="CQNOTgiLwDwh5zLEu_ER-4" target="CQNOTgiLwDwh5zLEu_ER-2">
          <mxGeometry relative="1" as="geometry" />
        </mxCell>
        <mxCell id="CQNOTgiLwDwh5zLEu_ER-4" value="Blocks" style="rounded=0;whiteSpace=wrap;html=1;" vertex="1" parent="1">
          <mxGeometry x="400" y="400" width="120" height="60" as="geometry" />
        </mxCell>
        <mxCell id="CQNOTgiLwDwh5zLEu_ER-8" style="edgeStyle=orthogonalEdgeStyle;rounded=0;orthogonalLoop=1;jettySize=auto;html=1;exitX=0.5;exitY=1;exitDx=0;exitDy=0;entryX=0.5;entryY=0;entryDx=0;entryDy=0;" edge="1" parent="1" source="CQNOTgiLwDwh5zLEu_ER-7" target="CQNOTgiLwDwh5zLEu_ER-3">
          <mxGeometry relative="1" as="geometry" />
        </mxCell>
        <mxCell id="CQNOTgiLwDwh5zLEu_ER-9" style="edgeStyle=orthogonalEdgeStyle;rounded=0;orthogonalLoop=1;jettySize=auto;html=1;exitX=0.5;exitY=1;exitDx=0;exitDy=0;entryX=0.5;entryY=0;entryDx=0;entryDy=0;" edge="1" parent="1" source="CQNOTgiLwDwh5zLEu_ER-7" target="CQNOTgiLwDwh5zLEu_ER-2">
          <mxGeometry relative="1" as="geometry" />
        </mxCell>
        <mxCell id="CQNOTgiLwDwh5zLEu_ER-7" value="Cursor" style="rounded=0;whiteSpace=wrap;html=1;" vertex="1" parent="1">
          <mxGeometry x="440" y="100" width="120" height="60" as="geometry" />
        </mxCell>
      </root>
    </mxGraphModel>
  </diagram>
</mxfile>
